<svg width="100%" height="100%" id="svg" viewBox="0 0 1440 390" xmlns="http://www.w3.org/2000/svg" class="transition duration-300 ease-in-out delay-150"><path d="M 0,400 L 0,150 C 62.05706921944035,151.14948453608247 124.1141384388807,152.29896907216494 180,163 C 235.8858615611193,173.70103092783506 285.60051546391753,193.9536082474227 343,193 C 400.39948453608247,192.0463917525773 465.4837997054491,169.88659793814432 525,172 C 584.5162002945509,174.11340206185568 638.4642857142858,200.5 704,186 C 769.5357142857142,171.5 846.6590574374079,116.11340206185565 906,87 C 965.3409425625921,57.88659793814434 1006.8994845360826,55.04639175257731 1068,86 C 1129.1005154639174,116.9536082474227 1209.7430044182622,181.7010309278351 1275,198 C 1340.2569955817378,214.2989690721649 1390.128497790869,182.14948453608247 1440,150 L 1440,400 L 0,400 Z" stroke="none" stroke-width="0" fill="#f5f5f5" fill-opacity="1" class="transition-all duration-300 ease-in-out delay-150 path-0" transform="rotate(-180 720 200)"></path></svg>